<mxfile host="app.diagrams.net" modified="2020-09-17T10:55:35.287Z" agent="5.0 (Macintosh; Intel Mac OS X 10_15_6) AppleWebKit/537.36 (KHTML, like Gecko) Chrome/85.0.4183.83 Safari/537.36" etag="D5D4J1Q6dk-vIF9ksf8k" version="13.7.1" type="github">
  <diagram id="_6A_MofZoJqb9-K2ubUA" name="Page-1">
    <mxGraphModel dx="1577" dy="915" grid="1" gridSize="10" guides="1" tooltips="1" connect="1" arrows="1" fold="1" page="1" pageScale="1" pageWidth="1169" pageHeight="1654" math="0" shadow="0">
      <root>
        <mxCell id="0" />
        <mxCell id="1" parent="0" />
        <mxCell id="Su5M8FXNA-eXvBgqJbmv-3" value="" style="html=1;dropTarget=0;" parent="1" vertex="1">
          <mxGeometry x="270" y="80" width="1220" height="1250" as="geometry" />
        </mxCell>
        <mxCell id="Su5M8FXNA-eXvBgqJbmv-4" value="" style="shape=component;jettyWidth=8;jettyHeight=4;" parent="Su5M8FXNA-eXvBgqJbmv-3" vertex="1">
          <mxGeometry x="1" width="20" height="20" relative="1" as="geometry">
            <mxPoint x="-27" y="7" as="offset" />
          </mxGeometry>
        </mxCell>
        <mxCell id="xfa6XxT6QD6CS2kDUgFH-5" style="edgeStyle=orthogonalEdgeStyle;rounded=0;orthogonalLoop=1;jettySize=auto;html=1;exitX=0.5;exitY=1;exitDx=0;exitDy=0;entryX=0.5;entryY=0;entryDx=0;entryDy=0;" edge="1" parent="1" source="Su5M8FXNA-eXvBgqJbmv-5" target="xfa6XxT6QD6CS2kDUgFH-4">
          <mxGeometry relative="1" as="geometry" />
        </mxCell>
        <mxCell id="Su5M8FXNA-eXvBgqJbmv-5" value="router&#xa;+ allow origin&#xa;+ capture panic" style="shape=module;align=right;spacingLeft=20;align=center;verticalAlign=middle;fontStyle=0;labelPosition=center;verticalLabelPosition=middle;" parent="1" vertex="1">
          <mxGeometry x="290" y="320" width="130" height="60" as="geometry" />
        </mxCell>
        <mxCell id="Su5M8FXNA-eXvBgqJbmv-9" value="&lt;p style=&quot;margin: 0px ; margin-top: 4px ; text-align: center&quot;&gt;Validator&lt;/p&gt;&lt;hr size=&quot;1&quot;&gt;&lt;p style=&quot;margin: 0px ; margin-left: 4px&quot;&gt;&lt;/p&gt;&lt;p style=&quot;margin: 0px ; margin-left: 4px&quot;&gt;+ validate(RequestData): error&lt;br&gt;&lt;br&gt;&lt;/p&gt;" style="verticalAlign=top;align=left;overflow=fill;fontSize=12;fontFamily=Helvetica;html=1;" parent="1" vertex="1">
          <mxGeometry x="910" y="431" width="190" height="50" as="geometry" />
        </mxCell>
        <mxCell id="xfa6XxT6QD6CS2kDUgFH-54" style="edgeStyle=orthogonalEdgeStyle;rounded=0;orthogonalLoop=1;jettySize=auto;html=1;exitX=1;exitY=0.5;exitDx=0;exitDy=0;entryX=0;entryY=0.5;entryDx=0;entryDy=0;" edge="1" parent="1" source="Su5M8FXNA-eXvBgqJbmv-10" target="xfa6XxT6QD6CS2kDUgFH-53">
          <mxGeometry relative="1" as="geometry" />
        </mxCell>
        <mxCell id="xfa6XxT6QD6CS2kDUgFH-71" style="edgeStyle=orthogonalEdgeStyle;rounded=0;orthogonalLoop=1;jettySize=auto;html=1;exitX=0;exitY=1;exitDx=0;exitDy=0;entryX=0;entryY=0.75;entryDx=0;entryDy=0;" edge="1" parent="1" source="Su5M8FXNA-eXvBgqJbmv-10" target="xfa6XxT6QD6CS2kDUgFH-13">
          <mxGeometry relative="1" as="geometry" />
        </mxCell>
        <mxCell id="Su5M8FXNA-eXvBgqJbmv-10" value="&lt;p style=&quot;margin: 0px ; margin-top: 4px ; text-align: center&quot;&gt;&lt;i&gt;Model&lt;/i&gt;&lt;/p&gt;&lt;hr size=&quot;1&quot;&gt;&lt;p style=&quot;margin: 0px ; margin-left: 4px&quot;&gt;+ processRequest(DSPRequest): error&lt;br&gt;&lt;br&gt;&lt;/p&gt;" style="verticalAlign=top;align=left;overflow=fill;fontSize=12;fontFamily=Helvetica;html=1;" parent="1" vertex="1">
          <mxGeometry x="510" y="470" width="220" height="60" as="geometry" />
        </mxCell>
        <mxCell id="Su5M8FXNA-eXvBgqJbmv-11" value="" style="endArrow=block;endFill=1;html=1;edgeStyle=orthogonalEdgeStyle;align=left;verticalAlign=top;" parent="1" source="Su5M8FXNA-eXvBgqJbmv-5" target="xfa6XxT6QD6CS2kDUgFH-7" edge="1">
          <mxGeometry x="-1" relative="1" as="geometry">
            <mxPoint x="470" y="520" as="sourcePoint" />
            <mxPoint x="630" y="520" as="targetPoint" />
          </mxGeometry>
        </mxCell>
        <mxCell id="Su5M8FXNA-eXvBgqJbmv-12" value="1" style="edgeLabel;resizable=0;html=1;align=left;verticalAlign=bottom;" parent="Su5M8FXNA-eXvBgqJbmv-11" connectable="0" vertex="1">
          <mxGeometry x="-1" relative="1" as="geometry" />
        </mxCell>
        <mxCell id="Su5M8FXNA-eXvBgqJbmv-22" value="validate" style="endArrow=block;endFill=1;html=1;edgeStyle=orthogonalEdgeStyle;align=left;verticalAlign=top;exitX=1;exitY=0.25;exitDx=0;exitDy=0;entryX=0;entryY=0.5;entryDx=0;entryDy=0;" parent="1" source="Su5M8FXNA-eXvBgqJbmv-10" target="Su5M8FXNA-eXvBgqJbmv-9" edge="1">
          <mxGeometry x="-1" relative="1" as="geometry">
            <mxPoint x="470" y="560" as="sourcePoint" />
            <mxPoint x="630" y="560" as="targetPoint" />
          </mxGeometry>
        </mxCell>
        <mxCell id="Su5M8FXNA-eXvBgqJbmv-23" value="2" style="edgeLabel;resizable=0;html=1;align=left;verticalAlign=bottom;" parent="Su5M8FXNA-eXvBgqJbmv-22" connectable="0" vertex="1">
          <mxGeometry x="-1" relative="1" as="geometry" />
        </mxCell>
        <mxCell id="Su5M8FXNA-eXvBgqJbmv-25" value="save request" style="endArrow=block;endFill=1;html=1;edgeStyle=orthogonalEdgeStyle;align=left;verticalAlign=top;exitX=1;exitY=0.75;exitDx=0;exitDy=0;entryX=0;entryY=0.5;entryDx=0;entryDy=0;" parent="1" source="Su5M8FXNA-eXvBgqJbmv-10" target="xfa6XxT6QD6CS2kDUgFH-13" edge="1">
          <mxGeometry x="-1" relative="1" as="geometry">
            <mxPoint x="470" y="560" as="sourcePoint" />
            <mxPoint x="890" y="495" as="targetPoint" />
          </mxGeometry>
        </mxCell>
        <mxCell id="Su5M8FXNA-eXvBgqJbmv-26" value="3" style="edgeLabel;resizable=0;html=1;align=left;verticalAlign=bottom;" parent="Su5M8FXNA-eXvBgqJbmv-25" connectable="0" vertex="1">
          <mxGeometry x="-1" relative="1" as="geometry" />
        </mxCell>
        <mxCell id="Su5M8FXNA-eXvBgqJbmv-28" value="getAds" style="endArrow=block;endFill=1;html=1;edgeStyle=orthogonalEdgeStyle;align=left;verticalAlign=top;exitX=0.5;exitY=1;exitDx=0;exitDy=0;entryX=0;entryY=0.5;entryDx=0;entryDy=0;" parent="1" source="Su5M8FXNA-eXvBgqJbmv-10" target="xfa6XxT6QD6CS2kDUgFH-22" edge="1">
          <mxGeometry x="-0.8476" relative="1" as="geometry">
            <mxPoint x="470" y="560" as="sourcePoint" />
            <mxPoint x="730" y="674.5" as="targetPoint" />
            <mxPoint as="offset" />
          </mxGeometry>
        </mxCell>
        <mxCell id="Su5M8FXNA-eXvBgqJbmv-29" value="4" style="edgeLabel;resizable=0;html=1;align=left;verticalAlign=bottom;" parent="Su5M8FXNA-eXvBgqJbmv-28" connectable="0" vertex="1">
          <mxGeometry x="-1" relative="1" as="geometry">
            <mxPoint x="-13" y="41" as="offset" />
          </mxGeometry>
        </mxCell>
        <mxCell id="Su5M8FXNA-eXvBgqJbmv-30" value="&lt;p style=&quot;margin: 0px ; margin-top: 4px ; text-align: center&quot;&gt;&lt;i&gt;ResponseAdapter&lt;/i&gt;&lt;/p&gt;&lt;hr size=&quot;1&quot;&gt;&lt;p style=&quot;margin: 0px ; margin-left: 4px&quot;&gt;+ createResponse(RequestData, Ad): DSPResponse&lt;br&gt;&lt;/p&gt;" style="verticalAlign=top;align=left;overflow=fill;fontSize=12;fontFamily=Helvetica;html=1;" parent="1" vertex="1">
          <mxGeometry x="580" y="1210" width="290" height="60" as="geometry" />
        </mxCell>
        <mxCell id="Su5M8FXNA-eXvBgqJbmv-31" value="createResponse" style="endArrow=block;endFill=1;html=1;edgeStyle=orthogonalEdgeStyle;align=left;verticalAlign=top;exitX=0.25;exitY=1;exitDx=0;exitDy=0;entryX=0;entryY=0.5;entryDx=0;entryDy=0;" parent="1" source="Su5M8FXNA-eXvBgqJbmv-10" target="Su5M8FXNA-eXvBgqJbmv-30" edge="1">
          <mxGeometry x="0.0548" relative="1" as="geometry">
            <mxPoint x="480" y="560" as="sourcePoint" />
            <mxPoint x="640" y="560" as="targetPoint" />
            <mxPoint as="offset" />
          </mxGeometry>
        </mxCell>
        <mxCell id="Su5M8FXNA-eXvBgqJbmv-32" value="5" style="edgeLabel;resizable=0;html=1;align=left;verticalAlign=bottom;" parent="Su5M8FXNA-eXvBgqJbmv-31" connectable="0" vertex="1">
          <mxGeometry x="-1" relative="1" as="geometry">
            <mxPoint x="-12.5" y="161" as="offset" />
          </mxGeometry>
        </mxCell>
        <mxCell id="Su5M8FXNA-eXvBgqJbmv-40" style="edgeStyle=orthogonalEdgeStyle;rounded=0;orthogonalLoop=1;jettySize=auto;html=1;exitX=0;exitY=0;exitDx=60;exitDy=95;exitPerimeter=0;entryX=0.5;entryY=0;entryDx=0;entryDy=0;" parent="1" source="Su5M8FXNA-eXvBgqJbmv-33" target="Su5M8FXNA-eXvBgqJbmv-34" edge="1">
          <mxGeometry relative="1" as="geometry" />
        </mxCell>
        <mxCell id="Su5M8FXNA-eXvBgqJbmv-33" value="Broker" style="verticalAlign=top;align=left;spacingTop=8;spacingLeft=2;spacingRight=12;shape=cube;size=10;direction=south;fontStyle=4;html=1;" parent="1" vertex="1">
          <mxGeometry x="1880" y="160" width="180" height="60" as="geometry" />
        </mxCell>
        <mxCell id="Su5M8FXNA-eXvBgqJbmv-42" style="edgeStyle=orthogonalEdgeStyle;rounded=0;orthogonalLoop=1;jettySize=auto;html=1;exitX=0.5;exitY=1;exitDx=0;exitDy=0;entryX=0;entryY=0;entryDx=0;entryDy=85;entryPerimeter=0;" parent="1" source="Su5M8FXNA-eXvBgqJbmv-34" target="Su5M8FXNA-eXvBgqJbmv-41" edge="1">
          <mxGeometry relative="1" as="geometry" />
        </mxCell>
        <mxCell id="Su5M8FXNA-eXvBgqJbmv-34" value="Statistic Service(Golang)" style="html=1;dropTarget=0;" parent="1" vertex="1">
          <mxGeometry x="1875" y="290" width="180" height="90" as="geometry" />
        </mxCell>
        <mxCell id="Su5M8FXNA-eXvBgqJbmv-35" value="" style="shape=component;jettyWidth=8;jettyHeight=4;" parent="Su5M8FXNA-eXvBgqJbmv-34" vertex="1">
          <mxGeometry x="1" width="20" height="20" relative="1" as="geometry">
            <mxPoint x="-27" y="7" as="offset" />
          </mxGeometry>
        </mxCell>
        <mxCell id="Su5M8FXNA-eXvBgqJbmv-36" value="" style="endArrow=block;endFill=1;html=1;edgeStyle=orthogonalEdgeStyle;align=left;verticalAlign=top;entryX=0;entryY=0;entryDx=35;entryDy=180;entryPerimeter=0;exitX=1;exitY=0.5;exitDx=0;exitDy=0;" parent="1" source="xfa6XxT6QD6CS2kDUgFH-17" target="Su5M8FXNA-eXvBgqJbmv-33" edge="1">
          <mxGeometry x="-1" relative="1" as="geometry">
            <mxPoint x="1260" y="280" as="sourcePoint" />
            <mxPoint x="1080" y="120" as="targetPoint" />
            <Array as="points">
              <mxPoint x="1530" y="839" />
              <mxPoint x="1530" y="195" />
            </Array>
          </mxGeometry>
        </mxCell>
        <mxCell id="Su5M8FXNA-eXvBgqJbmv-49" style="edgeStyle=orthogonalEdgeStyle;rounded=0;orthogonalLoop=1;jettySize=auto;html=1;exitX=0;exitY=0;exitDx=65;exitDy=180;exitPerimeter=0;entryX=1;entryY=0.5;entryDx=0;entryDy=0;" parent="1" source="Su5M8FXNA-eXvBgqJbmv-41" target="Su5M8FXNA-eXvBgqJbmv-44" edge="1">
          <mxGeometry relative="1" as="geometry" />
        </mxCell>
        <mxCell id="Su5M8FXNA-eXvBgqJbmv-41" value="Statistic Database(Clickhouse)" style="verticalAlign=top;align=left;spacingTop=8;spacingLeft=2;spacingRight=12;shape=cube;size=10;direction=south;fontStyle=4;html=1;" parent="1" vertex="1">
          <mxGeometry x="1870" y="440" width="180" height="120" as="geometry" />
        </mxCell>
        <mxCell id="Su5M8FXNA-eXvBgqJbmv-50" style="edgeStyle=orthogonalEdgeStyle;rounded=0;orthogonalLoop=1;jettySize=auto;html=1;exitX=0.5;exitY=0;exitDx=0;exitDy=0;entryX=0;entryY=0;entryDx=120;entryDy=95;entryPerimeter=0;" parent="1" source="Su5M8FXNA-eXvBgqJbmv-44" target="Su5M8FXNA-eXvBgqJbmv-46" edge="1">
          <mxGeometry relative="1" as="geometry" />
        </mxCell>
        <mxCell id="Su5M8FXNA-eXvBgqJbmv-44" value="Cache Service" style="html=1;dropTarget=0;" parent="1" vertex="1">
          <mxGeometry x="1630" y="585" width="180" height="90" as="geometry" />
        </mxCell>
        <mxCell id="Su5M8FXNA-eXvBgqJbmv-45" value="" style="shape=component;jettyWidth=8;jettyHeight=4;" parent="Su5M8FXNA-eXvBgqJbmv-44" vertex="1">
          <mxGeometry x="1" width="20" height="20" relative="1" as="geometry">
            <mxPoint x="-27" y="7" as="offset" />
          </mxGeometry>
        </mxCell>
        <mxCell id="xfa6XxT6QD6CS2kDUgFH-25" style="edgeStyle=orthogonalEdgeStyle;rounded=0;orthogonalLoop=1;jettySize=auto;html=1;exitX=0;exitY=0;exitDx=65;exitDy=180;exitPerimeter=0;entryX=1;entryY=0.5;entryDx=0;entryDy=0;" edge="1" parent="1" source="Su5M8FXNA-eXvBgqJbmv-46" target="xfa6XxT6QD6CS2kDUgFH-22">
          <mxGeometry relative="1" as="geometry" />
        </mxCell>
        <mxCell id="Su5M8FXNA-eXvBgqJbmv-46" value="Cache Storage&lt;br&gt;&lt;br&gt;+ adData:&lt;br&gt;key:unit_id:region_id:platform_id" style="verticalAlign=top;align=left;spacingTop=8;spacingLeft=2;spacingRight=12;shape=cube;size=10;direction=south;fontStyle=4;html=1;" parent="1" vertex="1">
          <mxGeometry x="1630" y="340" width="200" height="120" as="geometry" />
        </mxCell>
        <mxCell id="Su5M8FXNA-eXvBgqJbmv-48" style="edgeStyle=orthogonalEdgeStyle;rounded=0;orthogonalLoop=1;jettySize=auto;html=1;exitX=0;exitY=0;exitDx=65;exitDy=180;exitPerimeter=0;entryX=1;entryY=0.5;entryDx=0;entryDy=0;" parent="1" source="Su5M8FXNA-eXvBgqJbmv-47" target="Su5M8FXNA-eXvBgqJbmv-44" edge="1">
          <mxGeometry relative="1" as="geometry" />
        </mxCell>
        <mxCell id="Su5M8FXNA-eXvBgqJbmv-47" value="Relational Database(Mysql)" style="verticalAlign=top;align=left;spacingTop=8;spacingLeft=2;spacingRight=12;shape=cube;size=10;direction=south;fontStyle=4;html=1;" parent="1" vertex="1">
          <mxGeometry x="1870" y="724" width="180" height="120" as="geometry" />
        </mxCell>
        <mxCell id="xfa6XxT6QD6CS2kDUgFH-1" value="Log Storage" style="verticalAlign=top;align=left;spacingTop=8;spacingLeft=2;spacingRight=12;shape=cube;size=10;direction=south;fontStyle=4;html=1;" vertex="1" parent="1">
          <mxGeometry x="10" y="450" width="180" height="120" as="geometry" />
        </mxCell>
        <mxCell id="xfa6XxT6QD6CS2kDUgFH-6" style="edgeStyle=orthogonalEdgeStyle;rounded=0;orthogonalLoop=1;jettySize=auto;html=1;exitX=0;exitY=0;exitDx=0;exitDy=15;exitPerimeter=0;" edge="1" parent="1" source="xfa6XxT6QD6CS2kDUgFH-4" target="xfa6XxT6QD6CS2kDUgFH-1">
          <mxGeometry relative="1" as="geometry" />
        </mxCell>
        <mxCell id="xfa6XxT6QD6CS2kDUgFH-4" value="Log Service" style="shape=module;align=left;spacingLeft=20;align=center;verticalAlign=top;" vertex="1" parent="1">
          <mxGeometry x="280" y="550" width="100" height="50" as="geometry" />
        </mxCell>
        <mxCell id="xfa6XxT6QD6CS2kDUgFH-9" style="edgeStyle=orthogonalEdgeStyle;rounded=0;orthogonalLoop=1;jettySize=auto;html=1;exitX=0.5;exitY=1;exitDx=0;exitDy=0;entryX=0;entryY=0.5;entryDx=0;entryDy=0;" edge="1" parent="1" source="xfa6XxT6QD6CS2kDUgFH-7" target="Su5M8FXNA-eXvBgqJbmv-10">
          <mxGeometry relative="1" as="geometry" />
        </mxCell>
        <mxCell id="xfa6XxT6QD6CS2kDUgFH-10" style="edgeStyle=orthogonalEdgeStyle;rounded=0;orthogonalLoop=1;jettySize=auto;html=1;exitX=0;exitY=1;exitDx=0;exitDy=0;entryX=1;entryY=0.5;entryDx=0;entryDy=0;" edge="1" parent="1" source="xfa6XxT6QD6CS2kDUgFH-7" target="xfa6XxT6QD6CS2kDUgFH-4">
          <mxGeometry relative="1" as="geometry" />
        </mxCell>
        <mxCell id="xfa6XxT6QD6CS2kDUgFH-7" value="&lt;p style=&quot;margin: 0px ; margin-top: 4px ; text-align: center&quot;&gt;&lt;i&gt;Controller&lt;/i&gt;&lt;/p&gt;&lt;hr size=&quot;1&quot;&gt;&lt;p style=&quot;margin: 0px ; margin-left: 4px&quot;&gt;+ process(Request, Response): void&lt;br&gt;&lt;/p&gt;" style="verticalAlign=top;align=left;overflow=fill;fontSize=12;fontFamily=Helvetica;html=1;" vertex="1" parent="1">
          <mxGeometry x="460" y="340" width="210" height="60" as="geometry" />
        </mxCell>
        <mxCell id="xfa6XxT6QD6CS2kDUgFH-13" value="" style="html=1;dropTarget=0;align=center;" vertex="1" parent="1">
          <mxGeometry x="910" y="592" width="460" height="198" as="geometry" />
        </mxCell>
        <mxCell id="xfa6XxT6QD6CS2kDUgFH-14" value="" style="shape=component;jettyWidth=8;jettyHeight=4;" vertex="1" parent="xfa6XxT6QD6CS2kDUgFH-13">
          <mxGeometry x="1" width="31" height="20" relative="1" as="geometry">
            <mxPoint x="-38" y="7" as="offset" />
          </mxGeometry>
        </mxCell>
        <mxCell id="xfa6XxT6QD6CS2kDUgFH-19" style="edgeStyle=orthogonalEdgeStyle;rounded=0;orthogonalLoop=1;jettySize=auto;html=1;exitX=0.5;exitY=1;exitDx=0;exitDy=0;entryX=0;entryY=0.5;entryDx=0;entryDy=0;" edge="1" parent="1" source="xfa6XxT6QD6CS2kDUgFH-15" target="xfa6XxT6QD6CS2kDUgFH-16">
          <mxGeometry relative="1" as="geometry" />
        </mxCell>
        <mxCell id="xfa6XxT6QD6CS2kDUgFH-20" style="edgeStyle=orthogonalEdgeStyle;rounded=0;orthogonalLoop=1;jettySize=auto;html=1;exitX=0.25;exitY=1;exitDx=0;exitDy=0;entryX=0;entryY=0.5;entryDx=0;entryDy=0;" edge="1" parent="1" source="xfa6XxT6QD6CS2kDUgFH-15" target="xfa6XxT6QD6CS2kDUgFH-17">
          <mxGeometry relative="1" as="geometry" />
        </mxCell>
        <mxCell id="xfa6XxT6QD6CS2kDUgFH-15" value="&lt;p style=&quot;margin: 4px 0px 0px ; text-align: center&quot;&gt;&lt;i&gt;StatisticService (MetricEngine)&lt;/i&gt;&lt;/p&gt;&lt;hr size=&quot;1&quot;&gt;&lt;p style=&quot;margin: 0px 0px 0px 4px&quot;&gt;&lt;/p&gt;&lt;p style=&quot;margin: 0px 0px 0px 4px&quot;&gt;+ saveRequest(RequestData): error&lt;br&gt;&lt;/p&gt;&lt;p style=&quot;margin: 0px 0px 0px 4px&quot;&gt;+ saveBid(RequestData, bid): error&lt;/p&gt;" style="verticalAlign=top;align=left;overflow=fill;fontSize=12;fontFamily=Helvetica;html=1;" vertex="1" parent="1">
          <mxGeometry x="920" y="604" width="210" height="76" as="geometry" />
        </mxCell>
        <mxCell id="xfa6XxT6QD6CS2kDUgFH-16" value="&lt;p style=&quot;margin: 0px ; margin-top: 4px ; text-align: center&quot;&gt;&lt;i&gt;StatisticDataAdapter&lt;/i&gt;&lt;/p&gt;&lt;hr size=&quot;1&quot;&gt;&lt;p style=&quot;margin: 0px ; margin-left: 4px&quot;&gt;&lt;span&gt;+ convert(&lt;/span&gt;RequestData&lt;span&gt;): RequestEvent&lt;/span&gt;&lt;br&gt;&lt;/p&gt;&lt;p style=&quot;margin: 0px ; margin-left: 4px&quot;&gt;+ createBidData(RequestData, bid): BidData&lt;/p&gt;" style="verticalAlign=top;align=left;overflow=fill;fontSize=12;fontFamily=Helvetica;html=1;" vertex="1" parent="1">
          <mxGeometry x="1100" y="690" width="250" height="80" as="geometry" />
        </mxCell>
        <mxCell id="xfa6XxT6QD6CS2kDUgFH-17" value="&lt;p style=&quot;margin: 0px ; margin-top: 4px ; text-align: center&quot;&gt;&lt;i&gt;AMQPService&lt;/i&gt;&lt;/p&gt;&lt;hr size=&quot;1&quot;&gt;&lt;p style=&quot;margin: 0px ; margin-left: 4px&quot;&gt;+ send(Queue, Message): error&lt;br&gt;&lt;/p&gt;" style="verticalAlign=top;align=left;overflow=fill;fontSize=12;fontFamily=Helvetica;html=1;" vertex="1" parent="1">
          <mxGeometry x="1030" y="844" width="220" height="58" as="geometry" />
        </mxCell>
        <mxCell id="xfa6XxT6QD6CS2kDUgFH-22" value="" style="html=1;dropTarget=0;align=right;" vertex="1" parent="1">
          <mxGeometry x="910" y="950" width="560" height="340" as="geometry" />
        </mxCell>
        <mxCell id="xfa6XxT6QD6CS2kDUgFH-23" value="" style="shape=component;jettyWidth=8;jettyHeight=4;" vertex="1" parent="xfa6XxT6QD6CS2kDUgFH-22">
          <mxGeometry x="1" width="20" height="20" relative="1" as="geometry">
            <mxPoint x="-27" y="7" as="offset" />
          </mxGeometry>
        </mxCell>
        <mxCell id="xfa6XxT6QD6CS2kDUgFH-68" style="edgeStyle=orthogonalEdgeStyle;rounded=0;orthogonalLoop=1;jettySize=auto;html=1;exitX=1;exitY=0.5;exitDx=0;exitDy=0;entryX=0;entryY=0.5;entryDx=0;entryDy=0;" edge="1" parent="1" source="xfa6XxT6QD6CS2kDUgFH-24" target="xfa6XxT6QD6CS2kDUgFH-26">
          <mxGeometry relative="1" as="geometry" />
        </mxCell>
        <mxCell id="xfa6XxT6QD6CS2kDUgFH-69" style="edgeStyle=orthogonalEdgeStyle;rounded=0;orthogonalLoop=1;jettySize=auto;html=1;exitX=1;exitY=0.5;exitDx=0;exitDy=0;entryX=0;entryY=0.5;entryDx=0;entryDy=0;" edge="1" parent="1" source="xfa6XxT6QD6CS2kDUgFH-24" target="xfa6XxT6QD6CS2kDUgFH-32">
          <mxGeometry relative="1" as="geometry" />
        </mxCell>
        <mxCell id="xfa6XxT6QD6CS2kDUgFH-70" style="edgeStyle=orthogonalEdgeStyle;rounded=0;orthogonalLoop=1;jettySize=auto;html=1;exitX=1;exitY=0.5;exitDx=0;exitDy=0;entryX=0;entryY=0.5;entryDx=0;entryDy=0;" edge="1" parent="1" source="xfa6XxT6QD6CS2kDUgFH-24" target="xfa6XxT6QD6CS2kDUgFH-67">
          <mxGeometry relative="1" as="geometry" />
        </mxCell>
        <mxCell id="xfa6XxT6QD6CS2kDUgFH-24" value="&lt;p style=&quot;margin: 0px ; margin-top: 4px ; text-align: center&quot;&gt;&lt;i&gt;AdService&lt;/i&gt;&lt;/p&gt;&lt;hr size=&quot;1&quot;&gt;&lt;p style=&quot;margin: 0px ; margin-left: 4px&quot;&gt;+ getAds(RequestData): Ads&lt;br&gt;&lt;/p&gt;" style="verticalAlign=top;align=left;overflow=fill;fontSize=12;fontFamily=Helvetica;html=1;" vertex="1" parent="1">
          <mxGeometry x="950" y="980" width="190" height="50" as="geometry" />
        </mxCell>
        <mxCell id="xfa6XxT6QD6CS2kDUgFH-26" value="&lt;p style=&quot;margin: 0px ; margin-top: 4px ; text-align: center&quot;&gt;&lt;i&gt;AdFetcher&lt;/i&gt;&lt;/p&gt;&lt;hr size=&quot;1&quot;&gt;&lt;p style=&quot;margin: 0px ; margin-left: 4px&quot;&gt;+ getAdsFromRep(RequestData):&amp;nbsp;&lt;/p&gt;&amp;nbsp;[]AdSource" style="verticalAlign=top;align=left;overflow=fill;fontSize=12;fontFamily=Helvetica;html=1;" vertex="1" parent="1">
          <mxGeometry x="1180" y="1020" width="280" height="60" as="geometry" />
        </mxCell>
        <mxCell id="xfa6XxT6QD6CS2kDUgFH-61" style="edgeStyle=orthogonalEdgeStyle;rounded=0;orthogonalLoop=1;jettySize=auto;html=1;exitX=1;exitY=0.5;exitDx=0;exitDy=0;" edge="1" parent="1" source="xfa6XxT6QD6CS2kDUgFH-28">
          <mxGeometry relative="1" as="geometry">
            <mxPoint x="1870" y="810" as="targetPoint" />
            <Array as="points">
              <mxPoint x="1450" y="237" />
              <mxPoint x="1450" y="810" />
              <mxPoint x="1870" y="810" />
            </Array>
          </mxGeometry>
        </mxCell>
        <mxCell id="xfa6XxT6QD6CS2kDUgFH-28" value="&lt;p style=&quot;margin: 0px ; margin-top: 4px ; text-align: center&quot;&gt;&lt;i&gt;SSPRepository&lt;/i&gt;&lt;/p&gt;&lt;hr size=&quot;1&quot;&gt;&lt;p style=&quot;margin: 0px ; margin-left: 4px&quot;&gt;+ getDataByID(int id): SSPData&lt;br&gt;&lt;/p&gt;" style="verticalAlign=top;align=left;overflow=fill;fontSize=12;fontFamily=Helvetica;html=1;" vertex="1" parent="1">
          <mxGeometry x="1195" y="208" width="190" height="58" as="geometry" />
        </mxCell>
        <mxCell id="xfa6XxT6QD6CS2kDUgFH-32" value="&lt;p style=&quot;margin: 0px ; margin-top: 4px ; text-align: center&quot;&gt;&lt;i&gt;RequestFilter&lt;/i&gt;&lt;/p&gt;&lt;hr size=&quot;1&quot;&gt;&lt;p style=&quot;margin: 0px ; margin-left: 4px&quot;&gt;+ filterAd(RequestData, []AdSource): []&amp;nbsp;AdSource&lt;br&gt;&lt;br&gt;&lt;/p&gt;" style="verticalAlign=top;align=left;overflow=fill;fontSize=12;fontFamily=Helvetica;html=1;" vertex="1" parent="1">
          <mxGeometry x="1180" y="1100" width="280" height="60" as="geometry" />
        </mxCell>
        <mxCell id="xfa6XxT6QD6CS2kDUgFH-38" style="edgeStyle=orthogonalEdgeStyle;rounded=0;orthogonalLoop=1;jettySize=auto;html=1;exitX=1;exitY=0.5;exitDx=0;exitDy=0;entryX=0;entryY=0;entryDx=30;entryDy=180;entryPerimeter=0;" edge="1" parent="1" source="xfa6XxT6QD6CS2kDUgFH-34" target="xfa6XxT6QD6CS2kDUgFH-35">
          <mxGeometry relative="1" as="geometry" />
        </mxCell>
        <mxCell id="xfa6XxT6QD6CS2kDUgFH-34" value="&lt;p style=&quot;margin: 0px ; margin-top: 4px ; text-align: center&quot;&gt;&lt;i&gt;Geo2IPService&lt;/i&gt;&lt;/p&gt;&lt;hr size=&quot;1&quot;&gt;&lt;p style=&quot;margin: 0px ; margin-left: 4px&quot;&gt;+ getGeoData(ip)&lt;/p&gt;" style="verticalAlign=top;align=left;overflow=fill;fontSize=12;fontFamily=Helvetica;html=1;" vertex="1" parent="1">
          <mxGeometry x="1195" y="112" width="190" height="58" as="geometry" />
        </mxCell>
        <mxCell id="xfa6XxT6QD6CS2kDUgFH-35" value="GeoIP" style="verticalAlign=top;align=left;spacingTop=8;spacingLeft=2;spacingRight=12;shape=cube;size=10;direction=south;fontStyle=4;html=1;" vertex="1" parent="1">
          <mxGeometry x="1664" y="20" width="180" height="50" as="geometry" />
        </mxCell>
        <mxCell id="xfa6XxT6QD6CS2kDUgFH-42" value="" style="ellipse;html=1;shape=startState;fillColor=#000000;strokeColor=#ff0000;align=right;" vertex="1" parent="1">
          <mxGeometry x="180" y="240" width="30" height="30" as="geometry" />
        </mxCell>
        <mxCell id="xfa6XxT6QD6CS2kDUgFH-43" value="" style="edgeStyle=orthogonalEdgeStyle;html=1;verticalAlign=bottom;endArrow=open;endSize=8;strokeColor=#ff0000;entryX=0;entryY=0;entryDx=0;entryDy=35;entryPerimeter=0;" edge="1" source="xfa6XxT6QD6CS2kDUgFH-42" parent="1" target="Su5M8FXNA-eXvBgqJbmv-5">
          <mxGeometry relative="1" as="geometry">
            <mxPoint x="195" y="330" as="targetPoint" />
          </mxGeometry>
        </mxCell>
        <mxCell id="xfa6XxT6QD6CS2kDUgFH-62" style="edgeStyle=orthogonalEdgeStyle;rounded=0;orthogonalLoop=1;jettySize=auto;html=1;exitX=1;exitY=0.5;exitDx=0;exitDy=0;" edge="1" parent="1" source="xfa6XxT6QD6CS2kDUgFH-44">
          <mxGeometry relative="1" as="geometry">
            <mxPoint x="1450" y="310.28571428571445" as="targetPoint" />
          </mxGeometry>
        </mxCell>
        <mxCell id="xfa6XxT6QD6CS2kDUgFH-44" value="&lt;p style=&quot;margin: 0px ; margin-top: 4px ; text-align: center&quot;&gt;&lt;i&gt;RegionRepository&lt;/i&gt;&lt;/p&gt;&lt;hr size=&quot;1&quot;&gt;&lt;p style=&quot;margin: 0px ; margin-left: 4px&quot;&gt;&lt;/p&gt;&lt;p style=&quot;margin: 0px ; margin-left: 4px&quot;&gt;+ getCountry(isoCode): Region&lt;br&gt;+ getRegion(isoCode): Region&lt;/p&gt;&lt;p style=&quot;margin: 0px ; margin-left: 4px&quot;&gt;+ getCity(isoCode): Region&lt;/p&gt;" style="verticalAlign=top;align=left;overflow=fill;fontSize=12;fontFamily=Helvetica;html=1;" vertex="1" parent="1">
          <mxGeometry x="1195" y="270" width="190" height="80" as="geometry" />
        </mxCell>
        <mxCell id="xfa6XxT6QD6CS2kDUgFH-63" style="edgeStyle=orthogonalEdgeStyle;rounded=0;orthogonalLoop=1;jettySize=auto;html=1;exitX=1;exitY=0.5;exitDx=0;exitDy=0;" edge="1" parent="1" source="xfa6XxT6QD6CS2kDUgFH-46">
          <mxGeometry relative="1" as="geometry">
            <mxPoint x="1450" y="384.57142857142867" as="targetPoint" />
          </mxGeometry>
        </mxCell>
        <mxCell id="xfa6XxT6QD6CS2kDUgFH-46" value="&lt;p style=&quot;margin: 0px ; margin-top: 4px ; text-align: center&quot;&gt;&lt;i&gt;PlatformRepository&lt;/i&gt;&lt;/p&gt;&lt;hr size=&quot;1&quot;&gt;&lt;p style=&quot;margin: 0px ; margin-left: 4px&quot;&gt;+ getID(name): int&lt;br&gt;&lt;/p&gt;" style="verticalAlign=top;align=left;overflow=fill;fontSize=12;fontFamily=Helvetica;html=1;" vertex="1" parent="1">
          <mxGeometry x="1195" y="360" width="190" height="50" as="geometry" />
        </mxCell>
        <mxCell id="xfa6XxT6QD6CS2kDUgFH-64" style="edgeStyle=orthogonalEdgeStyle;rounded=0;orthogonalLoop=1;jettySize=auto;html=1;exitX=1;exitY=0.5;exitDx=0;exitDy=0;" edge="1" parent="1" source="xfa6XxT6QD6CS2kDUgFH-47">
          <mxGeometry relative="1" as="geometry">
            <mxPoint x="1450" y="444.57142857142867" as="targetPoint" />
          </mxGeometry>
        </mxCell>
        <mxCell id="xfa6XxT6QD6CS2kDUgFH-47" value="&lt;p style=&quot;margin: 0px ; margin-top: 4px ; text-align: center&quot;&gt;&lt;i&gt;OSRepository&lt;/i&gt;&lt;/p&gt;&lt;hr size=&quot;1&quot;&gt;&lt;p style=&quot;margin: 0px ; margin-left: 4px&quot;&gt;&lt;/p&gt;&lt;p style=&quot;margin: 0px ; margin-left: 4px&quot;&gt;+ getID(name): int&lt;br&gt;&lt;/p&gt;" style="verticalAlign=top;align=left;overflow=fill;fontSize=12;fontFamily=Helvetica;html=1;" vertex="1" parent="1">
          <mxGeometry x="1195" y="420" width="190" height="50" as="geometry" />
        </mxCell>
        <mxCell id="xfa6XxT6QD6CS2kDUgFH-65" style="edgeStyle=orthogonalEdgeStyle;rounded=0;orthogonalLoop=1;jettySize=auto;html=1;exitX=1;exitY=0.5;exitDx=0;exitDy=0;" edge="1" parent="1" source="xfa6XxT6QD6CS2kDUgFH-49">
          <mxGeometry relative="1" as="geometry">
            <mxPoint x="1450" y="504.57142857142867" as="targetPoint" />
          </mxGeometry>
        </mxCell>
        <mxCell id="xfa6XxT6QD6CS2kDUgFH-49" value="&lt;p style=&quot;margin: 0px ; margin-top: 4px ; text-align: center&quot;&gt;&lt;i&gt;BrowserRepository&lt;/i&gt;&lt;/p&gt;&lt;hr size=&quot;1&quot;&gt;&lt;p style=&quot;margin: 0px ; margin-left: 4px&quot;&gt;+ getID(name): int&lt;/p&gt;" style="verticalAlign=top;align=left;overflow=fill;fontSize=12;fontFamily=Helvetica;html=1;" vertex="1" parent="1">
          <mxGeometry x="1195" y="480" width="190" height="50" as="geometry" />
        </mxCell>
        <mxCell id="xfa6XxT6QD6CS2kDUgFH-55" style="edgeStyle=orthogonalEdgeStyle;rounded=0;orthogonalLoop=1;jettySize=auto;html=1;exitX=1;exitY=0.25;exitDx=0;exitDy=0;" edge="1" parent="1" source="xfa6XxT6QD6CS2kDUgFH-53" target="xfa6XxT6QD6CS2kDUgFH-28">
          <mxGeometry relative="1" as="geometry" />
        </mxCell>
        <mxCell id="xfa6XxT6QD6CS2kDUgFH-56" style="edgeStyle=orthogonalEdgeStyle;rounded=0;orthogonalLoop=1;jettySize=auto;html=1;exitX=1;exitY=0.25;exitDx=0;exitDy=0;entryX=0;entryY=0.5;entryDx=0;entryDy=0;" edge="1" parent="1" source="xfa6XxT6QD6CS2kDUgFH-53" target="xfa6XxT6QD6CS2kDUgFH-44">
          <mxGeometry relative="1" as="geometry" />
        </mxCell>
        <mxCell id="xfa6XxT6QD6CS2kDUgFH-57" style="edgeStyle=orthogonalEdgeStyle;rounded=0;orthogonalLoop=1;jettySize=auto;html=1;exitX=1;exitY=0.25;exitDx=0;exitDy=0;entryX=0;entryY=0.5;entryDx=0;entryDy=0;" edge="1" parent="1" source="xfa6XxT6QD6CS2kDUgFH-53" target="xfa6XxT6QD6CS2kDUgFH-46">
          <mxGeometry relative="1" as="geometry" />
        </mxCell>
        <mxCell id="xfa6XxT6QD6CS2kDUgFH-58" style="edgeStyle=orthogonalEdgeStyle;rounded=0;orthogonalLoop=1;jettySize=auto;html=1;exitX=1;exitY=0.25;exitDx=0;exitDy=0;entryX=0;entryY=0.5;entryDx=0;entryDy=0;" edge="1" parent="1" source="xfa6XxT6QD6CS2kDUgFH-53" target="xfa6XxT6QD6CS2kDUgFH-47">
          <mxGeometry relative="1" as="geometry" />
        </mxCell>
        <mxCell id="xfa6XxT6QD6CS2kDUgFH-59" style="edgeStyle=orthogonalEdgeStyle;rounded=0;orthogonalLoop=1;jettySize=auto;html=1;exitX=1;exitY=0.25;exitDx=0;exitDy=0;entryX=0;entryY=0.5;entryDx=0;entryDy=0;" edge="1" parent="1" source="xfa6XxT6QD6CS2kDUgFH-53" target="xfa6XxT6QD6CS2kDUgFH-49">
          <mxGeometry relative="1" as="geometry" />
        </mxCell>
        <mxCell id="xfa6XxT6QD6CS2kDUgFH-60" style="edgeStyle=orthogonalEdgeStyle;rounded=0;orthogonalLoop=1;jettySize=auto;html=1;exitX=1;exitY=0.25;exitDx=0;exitDy=0;entryX=0;entryY=0.5;entryDx=0;entryDy=0;" edge="1" parent="1" source="xfa6XxT6QD6CS2kDUgFH-53" target="xfa6XxT6QD6CS2kDUgFH-34">
          <mxGeometry relative="1" as="geometry" />
        </mxCell>
        <mxCell id="xfa6XxT6QD6CS2kDUgFH-53" value="&lt;p style=&quot;margin: 0px ; margin-top: 4px ; text-align: center&quot;&gt;&lt;i&gt;RequestDataAdapter&lt;/i&gt;&lt;/p&gt;&lt;hr size=&quot;1&quot;&gt;&lt;p style=&quot;margin: 0px ; margin-left: 4px&quot;&gt;+ convert(DSPRequest): RequestData&lt;br&gt;&lt;/p&gt;" style="verticalAlign=top;align=left;overflow=fill;fontSize=12;fontFamily=Helvetica;html=1;" vertex="1" parent="1">
          <mxGeometry x="910" y="250" width="240" height="50" as="geometry" />
        </mxCell>
        <mxCell id="xfa6XxT6QD6CS2kDUgFH-67" value="&lt;p style=&quot;margin: 0px ; margin-top: 4px ; text-align: center&quot;&gt;&lt;i&gt;SourceAdAdapter&lt;/i&gt;&lt;/p&gt;&lt;hr size=&quot;1&quot;&gt;&lt;p style=&quot;margin: 0px ; margin-left: 4px&quot;&gt;+ convertToAd(sourceAd): Ad&lt;/p&gt;" style="verticalAlign=top;align=left;overflow=fill;fontSize=12;fontFamily=Helvetica;html=1;" vertex="1" parent="1">
          <mxGeometry x="1180" y="1180" width="280" height="60" as="geometry" />
        </mxCell>
        <mxCell id="xfa6XxT6QD6CS2kDUgFH-72" value="6" style="text;html=1;resizable=0;autosize=1;align=center;verticalAlign=middle;points=[];fillColor=none;strokeColor=none;rounded=0;" vertex="1" parent="1">
          <mxGeometry x="510" y="600" width="20" height="20" as="geometry" />
        </mxCell>
      </root>
    </mxGraphModel>
  </diagram>
</mxfile>
